<?xml version="1.0" standalone="no"?><!DOCTYPE svg PUBLIC "-//W3C//DTD SVG 1.1//EN" "http://www.w3.org/Graphics/SVG/1.1/DTD/svg11.dtd"><svg t="1740559922711" class="icon" viewBox="0 0 1024 1024" version="1.1" xmlns="http://www.w3.org/2000/svg" p-id="21839" xmlns:xlink="http://www.w3.org/1999/xlink" width="200" height="200"><path d="M512 512m-512 0a512 512 0 1 0 1024 0 512 512 0 1 0-1024 0Z" fill="#FF6C13" p-id="21840"></path><path d="M610.210909 359.098182a17.687273 17.687273 0 0 0-17.687273-17.687273H379.927273a14.778182 14.778182 0 0 0-17.687273 17.687273v212.48a17.687273 17.687273 0 1 0 34.909091 0V376.785455h195.374545a17.687273 17.687273 0 0 0 17.687273-17.687273z m177.105455 265.658182a177.105455 177.105455 0 0 0-177.105455-177.105455h-10.938182a154.763636 154.763636 0 0 1 112.989091 247.970909l-128-128 46.545455-48.523636-15.592728-15.592727a65.861818 65.861818 0 0 1-50.26909 19.083636l-75.054546 76.101818 31.185455 31.185455 31.185454-31.185455 128.930909 128a154.414545 154.414545 0 0 1-210.036363-23.272727l-12.450909 12.450909a177.105455 177.105455 0 0 0 20.247272 26.530909l-20.945454 20.945455h-5.003637a19.781818 19.781818 0 0 0 0 39.330909 19.432727 19.432727 0 0 0 19.083637-16.64l24.785454-24.785455a177.105455 177.105455 0 0 0 221.672728 4.305455L756.363636 801.861818l31.185455-31.185454L750.08 733.090909a177.105455 177.105455 0 0 0 37.236364-108.334545z" fill="#FFFFFF" p-id="21841"></path><path d="M290.909091 270.545455h425.541818v141.730909h34.909091V270.545455a34.909091 34.909091 0 0 0-34.909091-34.909091H290.909091a34.909091 34.909091 0 0 0-34.909091 34.909091v495.825454a34.909091 34.909091 0 0 0 34.909091 34.909091h70.865454v-34.909091H290.909091z" fill="#FFFFFF" p-id="21842"></path></svg>