<?xml version="1.0" standalone="no"?><!DOCTYPE svg PUBLIC "-//W3C//DTD SVG 1.1//EN" "http://www.w3.org/Graphics/SVG/1.1/DTD/svg11.dtd"><svg t="1739947728480" class="icon" viewBox="0 0 1036 1024" version="1.1" xmlns="http://www.w3.org/2000/svg" p-id="6062" xmlns:xlink="http://www.w3.org/1999/xlink" width="202.34375" height="200"><path d="M774.175004 973.226667l-67.470222-44.743111a2.844444 2.844444 0 0 0-3.157333 0l-67.470222 44.743111a2.844444 2.844444 0 0 1-4.295111-3.185778l23.210666-75.349333a2.844444 2.844444 0 0 0-1.052444-3.128889l-64.597334-47.729778a2.844444 2.844444 0 0 1 1.621334-5.12l81.578666-2.019556a2.844444 2.844444 0 0 0 2.616889-1.877333l27.249778-74.382222a2.844444 2.844444 0 0 1 5.347556 0l27.249777 74.382222a2.844444 2.844444 0 0 0 2.588445 1.877333l81.607111 2.019556a2.844444 2.844444 0 0 1 1.621333 5.12l-64.625777 47.729778a2.844444 2.844444 0 0 0-1.024 3.128889l23.182222 75.349333a2.844444 2.844444 0 0 1-4.266667 3.185778z m-330.581333-170.837334l-162.133333-112.071111a5.688889 5.688889 0 0 0-6.485334 0l-161.934222 112.071111a5.688889 5.688889 0 0 1-8.704-6.286222l56.064-189.667555a5.688889 5.688889 0 0 0-1.962666-6.115556l-156.16-120.348444a5.688889 5.688889 0 0 1 3.271111-10.183112l196.608-5.063111a5.688889 5.688889 0 0 0 5.347555-3.925333l65.422222-186.311111a5.688889 5.688889 0 0 1 10.723556 0l65.422222 186.453333a5.688889 5.688889 0 0 0 5.233778 3.783111l196.579556 5.063111a5.688889 5.688889 0 0 1 3.328 10.183112l-156.131556 120.348444a5.688889 5.688889 0 0 0-1.991111 6.115556l56.035555 189.667555a5.688889 5.688889 0 0 1-5.461333 7.310222 5.688889 5.688889 0 0 1-3.072-1.024z m544.881778-63.800889l-67.441778-44.714666a2.844444 2.844444 0 0 0-3.157333 0l-67.527111 44.714666a2.844444 2.844444 0 0 1-4.295111-3.214222l23.210666-75.349333a2.844444 2.844444 0 0 0-1.024-3.128889l-64.625778-47.729778a2.844444 2.844444 0 0 1 1.621334-5.12l81.578666-2.019555a2.844444 2.844444 0 0 0 2.616889-1.877334l27.249778-74.382222a2.844444 2.844444 0 0 1 5.347556 0l27.249777 74.382222a2.844444 2.844444 0 0 0 2.616889 1.877334l81.578667 2.019555a2.844444 2.844444 0 0 1 1.621333 5.12L970.470116 657.066667a2.844444 2.844444 0 0 0-1.024 3.128889l23.182222 75.349333a2.844444 2.844444 0 0 1-4.266667 3.214222z m0-306.062222l-67.441778-44.743111a2.844444 2.844444 0 0 0-3.157333 0l-67.527111 44.771556a2.844444 2.844444 0 0 1-4.295111-3.185778l23.210666-75.349333a2.844444 2.844444 0 0 0-1.024-3.128889l-64.654222-47.729778a2.844444 2.844444 0 0 1 1.621333-5.12l81.578667-2.019556a2.844444 2.844444 0 0 0 2.616889-1.877333l27.249778-74.382222a2.844444 2.844444 0 0 1 5.347555 0l27.249778 74.382222a2.844444 2.844444 0 0 0 2.616889 1.877333l81.578667 2.019556a2.844444 2.844444 0 0 1 1.621333 5.12l-64.625778 47.729778a2.844444 2.844444 0 0 0-1.024 3.128889l23.182222 75.349333a2.844444 2.844444 0 0 1-4.266666 3.185778z m-214.186667-193.848889l-67.584-44.714666a2.844444 2.844444 0 0 0-3.157333 0l-67.441778 44.743111a2.844444 2.844444 0 0 1-4.295111-3.214222l23.210667-75.349334a2.844444 2.844444 0 0 0-1.052445-3.128889l-64.568889-47.701333a2.844444 2.844444 0 0 1 1.621334-5.148444l81.578666-1.991112a2.844444 2.844444 0 0 0 2.616889-1.877333l27.221334-74.353778a2.844444 2.844444 0 0 1 5.347555 0l27.249778 74.353778a2.844444 2.844444 0 0 0 2.588444 1.877333l81.607111 1.991112a2.844444 2.844444 0 0 1 1.621334 5.148444l-64.568889 47.729778a2.844444 2.844444 0 0 0-1.024 3.128889l23.182222 75.349333a2.844444 2.844444 0 0 1-2.844444 3.697778 2.844444 2.844444 0 0 1-1.422223-0.512z" fill="#F32121" p-id="6063"></path></svg>