<?xml version="1.0" standalone="no"?><!DOCTYPE svg PUBLIC "-//W3C//DTD SVG 1.1//EN" "http://www.w3.org/Graphics/SVG/1.1/DTD/svg11.dtd"><svg t="1746444626475" class="icon" viewBox="0 0 1025 1024" version="1.1" xmlns="http://www.w3.org/2000/svg" p-id="3876" xmlns:xlink="http://www.w3.org/1999/xlink" width="200.1953125" height="200"><path d="M240.874496 523.008c9.472-6.656 18.944-13.056 28.928-19.2A277.504 277.504 0 0 1 229.098496 358.4a217.856 217.856 0 0 1 0-22.528A12.544 12.544 0 0 1 231.146496 332.8a73.984 73.984 0 0 1 3.584-22.528A278.272 278.272 0 0 1 317.930496 153.6 65.28 65.28 0 0 0 307.946496 153.6a180.48 180.48 0 0 0-182.016 179.2 176.896 176.896 0 0 0 39.168 111.104A307.2 307.2 0 0 0 0.746496 656.896 51.2 51.2 0 0 0 51.946496 716.8a51.2 51.2 0 0 0 41.216-19.968 41.728 41.728 0 0 0 9.984-16.384 14.592 14.592 0 0 0 0-3.584 204.8 204.8 0 0 1 137.728-153.856zM1024.746496 656.896a307.2 307.2 0 0 0-163.328-212.992A176.896 176.896 0 0 0 899.562496 332.8 180.48 180.48 0 0 0 717.546496 153.6a65.28 65.28 0 0 0-9.984 0 278.272 278.272 0 0 1 84.48 155.904 73.984 73.984 0 0 1 3.584 22.528 12.544 12.544 0 0 1 0 3.072 217.856 217.856 0 0 1 0 22.528 277.504 277.504 0 0 1-40.704 145.408c9.984 6.144 19.456 12.544 28.928 19.2a204.8 204.8 0 0 1 136.96 153.6 14.592 14.592 0 0 0 0 3.584 41.728 41.728 0 0 0 8.448 16.384A51.2 51.2 0 0 0 973.546496 716.8a51.2 51.2 0 0 0 51.2-59.904z" fill="#070707" p-id="3877"></path><path d="M677.610496 520.704A228.864 228.864 0 0 0 745.194496 358.4a232.448 232.448 0 0 0-464.896 0 228.864 228.864 0 0 0 67.584 162.304A409.6 409.6 0 0 0 103.146496 837.376a51.2 51.2 0 0 0 102.4 16.128 310.272 310.272 0 0 1 614.4 0 51.2 51.2 0 0 0 102.4-16.128 409.6 409.6 0 0 0-244.736-316.672zM512.746496 486.4a128 128 0 1 1 129.28-128A128 128 0 0 1 512.746496 486.4z" fill="#070707" p-id="3878"></path></svg>