<?xml version="1.0" standalone="no"?><!DOCTYPE svg PUBLIC "-//W3C//DTD SVG 1.1//EN" "http://www.w3.org/Graphics/SVG/1.1/DTD/svg11.dtd"><svg t="1739947850449" class="icon" viewBox="0 0 1024 1024" version="1.1" xmlns="http://www.w3.org/2000/svg" p-id="7227" xmlns:xlink="http://www.w3.org/1999/xlink" width="200" height="200"><path d="M513.697876 0l40.17103 2.817752 38.870528 5.346504 37.244902 7.911381 35.763777 10.331757 34.174275 12.607635 32.657024 14.73901 30.959147 16.906513 29.333522 18.496013 27.74402 20.663515 25.865519 22.108517 24.239893 23.625767 22.361391 25.070768 20.663515 26.551895 18.857264 27.59952 16.906512 28.719396 14.991886 29.622522 13.113385 30.417272 11.126508 31.248148 9.139632 31.645523 7.080505 32.187399 5.093629 32.584773 2.962252 32.83765 0.903126 32.873774-1.336626 32.837649-3.323503 32.729274-5.780004 32.584773-7.911381 32.042899-10.151132 31.645523-12.463134 30.959148-14.739011 30.164397-17.303888 29.369646-19.543639 28.430396 92.552318 88.217315-124.161716 129.688845-91.107317-90.240316-19.146264 11.523883-19.182389 10.873633-19.290764 10.042758-19.290764 9.248006-19.290765 8.561632-19.435264 7.803005-19.399139 7.11663-19.435264 6.285755-19.579765 5.346504-19.399139 4.840754-19.579764 3.901502-19.543639 3.215128-19.68814 2.420377-19.579764 1.589501-19.543639 0.686375-19.579765 0.108375-19.543639-0.79475-19.435264-1.589501-19.579765-2.420377-19.543639-3.106753-19.435264-4.009877-19.54364-4.840754-19.435264-5.491004-19.290764-6.430255-19.290764-7.225005-19.290764-8.200381-19.290764-8.706131-19.146264-9.789883-19.037889-10.584632-19.037889-11.415509-19.001764-12.210259-18.893389-12.968884-14.08876 13.79976 0.93925 7.622381 0.397376 7.26113v7.225005l-0.505751 6.863755-0.93925 6.68313-1.481126 6.32188-1.878502 6.141254-2.131376 5.924505-2.564877 5.635504-3.070628 5.346504-3.359627 4.949128-3.612503 4.696254-3.865377 4.298878-4.298879 4.009878-4.551753 3.648627-4.840753 3.215128-4.949129 2.817752-5.346504 2.528752-5.491004 2.023001-5.635504 1.589501-5.780004 1.228251-5.88838 0.794751-6.032879 0.252875-6.285755-0.252875-6.177379-0.686376-6.430255-1.192126-6.430255-1.734001-6.430254-2.275876-6.430255-2.709377-6.430255-3.323503-6.53863-3.901503-6.430254-4.551753-4.154378-5.888379-3.757003-5.924505-3.215127-5.888379-2.817753-5.888379-2.420376-6.03288-2.023002-5.924504-1.589501-5.888379-1.192126-5.88838-0.686375-5.924504-0.397376-5.743879 0.1445-5.780005 0.397376-5.635504 0.79475-5.491004 1.336626-5.382629 1.625627-5.202003 1.986876-5.093629 2.420377-4.985254 2.673252-4.696253 3.070627-4.551754 3.648628-4.407253 3.720877-4.009878 4.298879-3.901503 4.551753-3.612502 4.840753-3.359628 5.346504-3.106752 5.491004-2.781627 5.88838-2.420377 6.321879-2.275876 6.430255-1.770127 6.936005-1.481126 7.26113-1.047626 7.514006-0.686375 10.042757-8.706132-66.072673-80.594934 76.765681-78.969307 14.08876 12.752134 14.305511 12.318634 14.630636 11.921259 14.847385 11.415508 15.136387 10.982008 15.425386 10.476258 15.678261 9.898257 15.931137 9.392507 16.220137 8.850631 16.328512 8.308756 16.509137 7.658506 16.725887 6.97213 17.014888 6.430255 17.159387 5.635504 17.267763 5.093629 17.412263 4.298878 17.701263 3.757003 17.665138 2.817752 17.954138 2.131376 17.954138 1.336626 18.098638 0.686376 18.207013-0.289 18.351514-1.047626 18.387638-2.023002 18.351514-2.673252 18.459888-3.757002 18.496014-4.551754 18.640513-5.491004 18.604389-6.466379 18.640514-7.514006 18.604388-8.417131 18.496014-9.392507-329.026741-318.983984-90.709942 94.50307-146.017356-146.414733 250.635433-265.338319 5.780004 1.336626 5.635504 1.192126 5.59938 1.083751 5.635504 0.79475 5.491004 0.939251 5.491004 0.541875 5.491004 0.541876 5.382629 0.252875 5.346504 0.1445h5.202003l5.238129-0.1445 5.238129-0.1445 5.093629-0.505751 5.093629-0.686375 5.093628-0.650251 4.949129-0.93925 4.949129-1.228251 4.804628-1.192126 4.985254-1.481126 4.696253-1.481126 4.660129-1.878502 4.696253-1.986876 4.696253-2.167502 4.407254-2.275876 4.551753-2.528752 4.443378-2.709377 4.407254-2.926127 4.298878-3.106753 4.262753-3.215127 4.298878-3.468002 4.046003-3.648628 4.118253-3.865378 79.330558 81.389685-126.076342 135.143724 335.890496 334.011994 10.295632-19.435264 8.995132-20.26614 7.47788-21.169265 6.17738-21.855641 4.949128-22.542017 3.468003-23.047767 2.312002-23.589642 0.93925-24.023143-0.4335-24.239892-1.589501-24.565018-2.817752-24.781768-4.154378-24.962394-5.238129-24.781768-6.53863-24.817893-7.766881-24.817893-8.850631-24.528893-10.042757-24.276018-11.271009-23.878642-12.318634-23.445143-13.402384-22.939391-14.594511-22.253017-15.678262-21.711141-16.762012-20.91639-17.809638-20.12164-18.748889-19.182389-19.977139-18.243138-20.735766-17.159388-21.855641-16.075636-22.903266-14.739011-23.842518-13.546885-24.781768-12.210259L513.697876 0z" fill="#D41C19" p-id="7228"></path></svg>