<?xml version="1.0" standalone="no"?><!DOCTYPE svg PUBLIC "-//W3C//DTD SVG 1.1//EN" "http://www.w3.org/Graphics/SVG/1.1/DTD/svg11.dtd"><svg t="1739947782290" class="icon" viewBox="0 0 1024 1024" version="1.1" xmlns="http://www.w3.org/2000/svg" p-id="6222" xmlns:xlink="http://www.w3.org/1999/xlink" width="200" height="200"><path d="M132.551626 178.725948A54.643881 54.643881 0 0 0 94.627505 238.512496l192.886562 752.218594a49.501214 49.501214 0 0 0 59.786547 31.489694 54.010187 54.010187 0 0 0 35.364974-57.861094L192.971867 210.240015a49.501214 49.501214 0 0 0-60.444614-31.514067M653.959537 97.735041c-138.242681 39.21588-153.012615-21.20436-288.671776 18.01152a310.534203 310.534203 0 0 0-134.367401 77.140001l114.552292 456.478697a310.485457 310.485457 0 0 1 131.808254-79.723521c138.218308-39.21588 153.548817 21.20436 291.88899-18.01152a441.148189 441.148189 0 0 0 160.738801-97.73504L815.332032 0a439.807683 439.807683 0 0 1-161.372495 97.735041" fill="#FA5051" p-id="6223"></path></svg>